<?xml version="1.0" encoding="UTF-8" standalone="no" ?>
<!DOCTYPE svg PUBLIC "-//W3C//DTD SVG 1.1//EN" "http://www.w3.org/Graphics/SVG/1.1/DTD/svg11.dtd">
<svg xmlns="http://www.w3.org/2000/svg" xmlns:xlink="http://www.w3.org/1999/xlink" version="1.1" width="1080" height="1080" viewBox="0 0 1080 1080" xml:space="preserve">
<desc>Created with Fabric.js 5.2.4</desc>
<defs>
</defs>
<g transform="matrix(1 0 0 1 540 540)" id="14b1c098-4e1a-48f8-bdf9-9e6d694c18ef"  >
</g>
<g transform="matrix(1 0 0 1 540 540)" id="3a1cfafd-ee52-4ccb-b95b-fbfc596af19d"  >
<rect style="stroke: none; stroke-width: 1; stroke-dasharray: none; stroke-linecap: butt; stroke-dashoffset: 0; stroke-linejoin: miter; stroke-miterlimit: 4; fill: rgb(255,255,255); fill-rule: nonzero; opacity: 1; visibility: hidden;" vector-effect="non-scaling-stroke"  x="-540" y="-540" rx="0" ry="0" width="1080" height="1080" />
</g>
<g transform="matrix(0 0 0 0 0 0)"  >
<g style=""   >
		<g transform="matrix(1 0 0 1 -5.49 5.44)" clip-path="url(#CLIPPATH_24)"  >
<clipPath id="CLIPPATH_24" >
	<rect transform="matrix(1 0 0 1 72.53 -5.44)" id="clip0_1903_1007" x="-105.5" y="-43.5" rx="0" ry="0" width="211" height="87" />
</clipPath>
<path style="stroke: none; stroke-width: 1; stroke-dasharray: none; stroke-linecap: butt; stroke-dashoffset: 0; stroke-linejoin: miter; stroke-miterlimit: 4; fill: rgb(0,0,0); fill-rule: nonzero; opacity: 1;" vector-effect="non-scaling-stroke"  transform=" translate(-32.97, -48.94)" d="M 21.979 38.0615 L 21.979 44.1014 C 24.0647 44.1 26.1302 44.5056 28.0574 45.2949 C 29.9845 46.0842 31.7355 47.2419 33.2101 48.7016 C 34.6843 50.1607 35.8534 51.8931 36.6506 53.7997 C 37.4478 55.7063 37.8574 57.7496 37.8561 59.813 L 43.9553 59.813 C 43.9498 54.0465 41.6328 48.5178 37.5128 44.4399 C 33.3927 40.362 27.8062 38.0681 21.979 38.0615 L 21.979 38.0615 Z" stroke-linecap="round" />
</g>
		<g transform="matrix(1 0 0 1 10.42 -10.31)" clip-path="url(#CLIPPATH_25)"  >
<clipPath id="CLIPPATH_25" >
	<rect transform="matrix(1 0 0 1 56.62 10.31)" id="clip0_1903_1007" x="-105.5" y="-43.5" rx="0" ry="0" width="211" height="87" />
</clipPath>
<path style="stroke: none; stroke-width: 1; stroke-dasharray: none; stroke-linecap: butt; stroke-dashoffset: 0; stroke-linejoin: miter; stroke-miterlimit: 4; fill: rgb(0,0,0); fill-rule: nonzero; opacity: 1;" vector-effect="non-scaling-stroke"  transform=" translate(-48.88, -33.19)" d="M 52.4813 27.1875 L 42.8154 27.1875 C 47.7052 30.2539 51.8485 34.3534 54.9479 39.1918 L 54.9479 29.6266 C 54.9475 28.9796 54.6874 28.3592 54.2249 27.9018 C 53.7623 27.4444 53.1352 27.1875 52.4813 27.1875 L 52.4813 27.1875 Z" stroke-linecap="round" />
</g>
		<g transform="matrix(1 0 0 1 0 0)" clip-path="url(#CLIPPATH_26)"  >
<clipPath id="CLIPPATH_26" >
	<rect transform="matrix(1 0 0 1 67.04 0)" id="clip0_1903_1007" x="-105.5" y="-43.5" rx="0" ry="0" width="211" height="87" />
</clipPath>
<path style="stroke: none; stroke-width: 1; stroke-dasharray: none; stroke-linecap: butt; stroke-dashoffset: 0; stroke-linejoin: miter; stroke-miterlimit: 4; fill: rgb(0,0,0); fill-rule: nonzero; opacity: 1;" vector-effect="non-scaling-stroke"  transform=" translate(-38.46, -43.5)" d="M 28.0522 27.1875 L 21.979 27.1875 L 21.979 32.6256 C 29.2632 32.6331 36.2468 35.4998 41.3976 40.5967 C 46.5483 45.6936 49.4454 52.6043 49.4532 59.8125 L 54.9478 59.8125 L 54.9478 53.8026 C 53.7055 47.1974 50.471 41.1193 45.6701 36.3684 C 40.8692 31.6176 34.727 28.4168 28.0522 27.1875 L 28.0522 27.1875 Z" stroke-linecap="round" />
</g>
</g>
</g>
<g transform="matrix(0 0 0 0 0 0)"  >
<g style=""   >
		<g transform="matrix(1 0 0 1 -5.49 5.44)" clip-path="url(#CLIPPATH_27)"  >
<clipPath id="CLIPPATH_27" >
	<rect transform="matrix(1 0 0 1 72.53 -5.44)" id="clip0_1903_1007" x="-105.5" y="-43.5" rx="0" ry="0" width="211" height="87" />
</clipPath>
<path style="stroke: none; stroke-width: 1; stroke-dasharray: none; stroke-linecap: butt; stroke-dashoffset: 0; stroke-linejoin: miter; stroke-miterlimit: 4; fill: rgb(0,0,0); fill-rule: nonzero; opacity: 1;" vector-effect="non-scaling-stroke"  transform=" translate(-32.97, -48.94)" d="M 21.979 38.0615 L 21.979 44.1014 C 24.0647 44.1 26.1302 44.5056 28.0574 45.2949 C 29.9845 46.0842 31.7355 47.2419 33.2101 48.7016 C 34.6843 50.1607 35.8534 51.8931 36.6506 53.7997 C 37.4478 55.7063 37.8574 57.7496 37.8561 59.813 L 43.9553 59.813 C 43.9498 54.0465 41.6328 48.5178 37.5128 44.4399 C 33.3927 40.362 27.8062 38.0681 21.979 38.0615 L 21.979 38.0615 Z" stroke-linecap="round" />
</g>
		<g transform="matrix(1 0 0 1 10.42 -10.31)" clip-path="url(#CLIPPATH_28)"  >
<clipPath id="CLIPPATH_28" >
	<rect transform="matrix(1 0 0 1 56.62 10.31)" id="clip0_1903_1007" x="-105.5" y="-43.5" rx="0" ry="0" width="211" height="87" />
</clipPath>
<path style="stroke: none; stroke-width: 1; stroke-dasharray: none; stroke-linecap: butt; stroke-dashoffset: 0; stroke-linejoin: miter; stroke-miterlimit: 4; fill: rgb(0,0,0); fill-rule: nonzero; opacity: 1;" vector-effect="non-scaling-stroke"  transform=" translate(-48.88, -33.19)" d="M 52.4813 27.1875 L 42.8154 27.1875 C 47.7052 30.2539 51.8485 34.3534 54.9479 39.1918 L 54.9479 29.6266 C 54.9475 28.9796 54.6874 28.3592 54.2249 27.9018 C 53.7623 27.4444 53.1352 27.1875 52.4813 27.1875 L 52.4813 27.1875 Z" stroke-linecap="round" />
</g>
		<g transform="matrix(1 0 0 1 0 0)" clip-path="url(#CLIPPATH_29)"  >
<clipPath id="CLIPPATH_29" >
	<rect transform="matrix(1 0 0 1 67.04 0)" id="clip0_1903_1007" x="-105.5" y="-43.5" rx="0" ry="0" width="211" height="87" />
</clipPath>
<path style="stroke: none; stroke-width: 1; stroke-dasharray: none; stroke-linecap: butt; stroke-dashoffset: 0; stroke-linejoin: miter; stroke-miterlimit: 4; fill: rgb(0,0,0); fill-rule: nonzero; opacity: 1;" vector-effect="non-scaling-stroke"  transform=" translate(-38.46, -43.5)" d="M 28.0522 27.1875 L 21.979 27.1875 L 21.979 32.6256 C 29.2632 32.6331 36.2468 35.4998 41.3976 40.5967 C 46.5483 45.6936 49.4454 52.6043 49.4532 59.8125 L 54.9478 59.8125 L 54.9478 53.8026 C 53.7055 47.1974 50.471 41.1193 45.6701 36.3684 C 40.8692 31.6176 34.727 28.4168 28.0522 27.1875 L 28.0522 27.1875 Z" stroke-linecap="round" />
</g>
</g>
</g>
<g transform="matrix(0 0 0 0 0 0)"  >
<g style=""   >
</g>
</g>
<g transform="matrix(0 0 0 0 0 0)"  >
<g style=""   >
</g>
</g>
<g transform="matrix(0 0 0 0 0 0)"  >
<g style=""   >
		<g transform="matrix(1 0 0 1 -5.49 5.44)" clip-path="url(#CLIPPATH_30)"  >
<clipPath id="CLIPPATH_30" >
	<rect transform="matrix(1 0 0 1 72.53 -5.44)" id="clip0_1903_1007" x="-105.5" y="-43.5" rx="0" ry="0" width="211" height="87" />
</clipPath>
<path style="stroke: none; stroke-width: 1; stroke-dasharray: none; stroke-linecap: butt; stroke-dashoffset: 0; stroke-linejoin: miter; stroke-miterlimit: 4; fill: rgb(0,0,0); fill-rule: nonzero; opacity: 1;" vector-effect="non-scaling-stroke"  transform=" translate(-32.97, -48.94)" d="M 21.979 38.0615 L 21.979 44.1014 C 24.0647 44.1 26.1302 44.5056 28.0574 45.2949 C 29.9845 46.0842 31.7355 47.2419 33.2101 48.7016 C 34.6843 50.1607 35.8534 51.8931 36.6506 53.7997 C 37.4478 55.7063 37.8574 57.7496 37.8561 59.813 L 43.9553 59.813 C 43.9498 54.0465 41.6328 48.5178 37.5128 44.4399 C 33.3927 40.362 27.8062 38.0681 21.979 38.0615 L 21.979 38.0615 Z" stroke-linecap="round" />
</g>
		<g transform="matrix(1 0 0 1 10.42 -10.31)" clip-path="url(#CLIPPATH_31)"  >
<clipPath id="CLIPPATH_31" >
	<rect transform="matrix(1 0 0 1 56.62 10.31)" id="clip0_1903_1007" x="-105.5" y="-43.5" rx="0" ry="0" width="211" height="87" />
</clipPath>
<path style="stroke: none; stroke-width: 1; stroke-dasharray: none; stroke-linecap: butt; stroke-dashoffset: 0; stroke-linejoin: miter; stroke-miterlimit: 4; fill: rgb(0,0,0); fill-rule: nonzero; opacity: 1;" vector-effect="non-scaling-stroke"  transform=" translate(-48.88, -33.19)" d="M 52.4813 27.1875 L 42.8154 27.1875 C 47.7052 30.2539 51.8485 34.3534 54.9479 39.1918 L 54.9479 29.6266 C 54.9475 28.9796 54.6874 28.3592 54.2249 27.9018 C 53.7623 27.4444 53.1352 27.1875 52.4813 27.1875 L 52.4813 27.1875 Z" stroke-linecap="round" />
</g>
		<g transform="matrix(1 0 0 1 0 0)" clip-path="url(#CLIPPATH_32)"  >
<clipPath id="CLIPPATH_32" >
	<rect transform="matrix(1 0 0 1 67.04 0)" id="clip0_1903_1007" x="-105.5" y="-43.5" rx="0" ry="0" width="211" height="87" />
</clipPath>
<path style="stroke: none; stroke-width: 1; stroke-dasharray: none; stroke-linecap: butt; stroke-dashoffset: 0; stroke-linejoin: miter; stroke-miterlimit: 4; fill: rgb(0,0,0); fill-rule: nonzero; opacity: 1;" vector-effect="non-scaling-stroke"  transform=" translate(-38.46, -43.5)" d="M 28.0522 27.1875 L 21.979 27.1875 L 21.979 32.6256 C 29.2632 32.6331 36.2468 35.4998 41.3976 40.5967 C 46.5483 45.6936 49.4454 52.6043 49.4532 59.8125 L 54.9478 59.8125 L 54.9478 53.8026 C 53.7055 47.1974 50.471 41.1193 45.6701 36.3684 C 40.8692 31.6176 34.727 28.4168 28.0522 27.1875 L 28.0522 27.1875 Z" stroke-linecap="round" />
</g>
</g>
</g>
<g transform="matrix(0 0 0 0 0 0)"  >
<g style=""   >
</g>
</g>
<g transform="matrix(0 0 0 0 0 0)"  >
<g style=""   >
</g>
</g>
<g transform="matrix(0 0 0 0 0 0)"  >
<g style=""   >
		<g transform="matrix(1 0 0 1 -5.49 5.44)" clip-path="url(#CLIPPATH_33)"  >
<clipPath id="CLIPPATH_33" >
	<rect transform="matrix(1 0 0 1 72.53 -5.44)" id="clip0_1903_1007" x="-105.5" y="-43.5" rx="0" ry="0" width="211" height="87" />
</clipPath>
<path style="stroke: none; stroke-width: 1; stroke-dasharray: none; stroke-linecap: butt; stroke-dashoffset: 0; stroke-linejoin: miter; stroke-miterlimit: 4; fill: rgb(0,0,0); fill-rule: nonzero; opacity: 1;" vector-effect="non-scaling-stroke"  transform=" translate(-32.97, -48.94)" d="M 21.979 38.0615 L 21.979 44.1014 C 24.0647 44.1 26.1302 44.5056 28.0574 45.2949 C 29.9845 46.0842 31.7355 47.2419 33.2101 48.7016 C 34.6843 50.1607 35.8534 51.8931 36.6506 53.7997 C 37.4478 55.7063 37.8574 57.7496 37.8561 59.813 L 43.9553 59.813 C 43.9498 54.0465 41.6328 48.5178 37.5128 44.4399 C 33.3927 40.362 27.8062 38.0681 21.979 38.0615 L 21.979 38.0615 Z" stroke-linecap="round" />
</g>
		<g transform="matrix(1 0 0 1 10.42 -10.31)" clip-path="url(#CLIPPATH_34)"  >
<clipPath id="CLIPPATH_34" >
	<rect transform="matrix(1 0 0 1 56.62 10.31)" id="clip0_1903_1007" x="-105.5" y="-43.5" rx="0" ry="0" width="211" height="87" />
</clipPath>
<path style="stroke: none; stroke-width: 1; stroke-dasharray: none; stroke-linecap: butt; stroke-dashoffset: 0; stroke-linejoin: miter; stroke-miterlimit: 4; fill: rgb(0,0,0); fill-rule: nonzero; opacity: 1;" vector-effect="non-scaling-stroke"  transform=" translate(-48.88, -33.19)" d="M 52.4813 27.1875 L 42.8154 27.1875 C 47.7052 30.2539 51.8485 34.3534 54.9479 39.1918 L 54.9479 29.6266 C 54.9475 28.9796 54.6874 28.3592 54.2249 27.9018 C 53.7623 27.4444 53.1352 27.1875 52.4813 27.1875 L 52.4813 27.1875 Z" stroke-linecap="round" />
</g>
		<g transform="matrix(1 0 0 1 0 0)" clip-path="url(#CLIPPATH_35)"  >
<clipPath id="CLIPPATH_35" >
	<rect transform="matrix(1 0 0 1 67.04 0)" id="clip0_1903_1007" x="-105.5" y="-43.5" rx="0" ry="0" width="211" height="87" />
</clipPath>
<path style="stroke: none; stroke-width: 1; stroke-dasharray: none; stroke-linecap: butt; stroke-dashoffset: 0; stroke-linejoin: miter; stroke-miterlimit: 4; fill: rgb(0,0,0); fill-rule: nonzero; opacity: 1;" vector-effect="non-scaling-stroke"  transform=" translate(-38.46, -43.5)" d="M 28.0522 27.1875 L 21.979 27.1875 L 21.979 32.6256 C 29.2632 32.6331 36.2468 35.4998 41.3976 40.5967 C 46.5483 45.6936 49.4454 52.6043 49.4532 59.8125 L 54.9478 59.8125 L 54.9478 53.8026 C 53.7055 47.1974 50.471 41.1193 45.6701 36.3684 C 40.8692 31.6176 34.727 28.4168 28.0522 27.1875 L 28.0522 27.1875 Z" stroke-linecap="round" />
</g>
</g>
</g>
<g transform="matrix(0 0 0 0 0 0)"  >
<g style=""   >
</g>
</g>
<g transform="matrix(0 0 0 0 0 0)"  >
<g style=""   >
</g>
</g>
<g transform="matrix(0 0 0 0 0 0)"  >
<g style=""   >
		<g transform="matrix(1 0 0 1 -5.49 5.44)" clip-path="url(#CLIPPATH_36)"  >
<clipPath id="CLIPPATH_36" >
	<rect transform="matrix(1 0 0 1 72.53 -5.44)" id="clip0_1903_1007" x="-105.5" y="-43.5" rx="0" ry="0" width="211" height="87" />
</clipPath>
<path style="stroke: none; stroke-width: 1; stroke-dasharray: none; stroke-linecap: butt; stroke-dashoffset: 0; stroke-linejoin: miter; stroke-miterlimit: 4; fill: rgb(0,0,0); fill-rule: nonzero; opacity: 1;" vector-effect="non-scaling-stroke"  transform=" translate(-32.97, -48.94)" d="M 21.979 38.0615 L 21.979 44.1014 C 24.0647 44.1 26.1302 44.5056 28.0574 45.2949 C 29.9845 46.0842 31.7355 47.2419 33.2101 48.7016 C 34.6843 50.1607 35.8534 51.8931 36.6506 53.7997 C 37.4478 55.7063 37.8574 57.7496 37.8561 59.813 L 43.9553 59.813 C 43.9498 54.0465 41.6328 48.5178 37.5128 44.4399 C 33.3927 40.362 27.8062 38.0681 21.979 38.0615 L 21.979 38.0615 Z" stroke-linecap="round" />
</g>
		<g transform="matrix(1 0 0 1 10.42 -10.31)" clip-path="url(#CLIPPATH_37)"  >
<clipPath id="CLIPPATH_37" >
	<rect transform="matrix(1 0 0 1 56.62 10.31)" id="clip0_1903_1007" x="-105.5" y="-43.5" rx="0" ry="0" width="211" height="87" />
</clipPath>
<path style="stroke: none; stroke-width: 1; stroke-dasharray: none; stroke-linecap: butt; stroke-dashoffset: 0; stroke-linejoin: miter; stroke-miterlimit: 4; fill: rgb(0,0,0); fill-rule: nonzero; opacity: 1;" vector-effect="non-scaling-stroke"  transform=" translate(-48.88, -33.19)" d="M 52.4813 27.1875 L 42.8154 27.1875 C 47.7052 30.2539 51.8485 34.3534 54.9479 39.1918 L 54.9479 29.6266 C 54.9475 28.9796 54.6874 28.3592 54.2249 27.9018 C 53.7623 27.4444 53.1352 27.1875 52.4813 27.1875 L 52.4813 27.1875 Z" stroke-linecap="round" />
</g>
		<g transform="matrix(1 0 0 1 0 0)" clip-path="url(#CLIPPATH_38)"  >
<clipPath id="CLIPPATH_38" >
	<rect transform="matrix(1 0 0 1 67.04 0)" id="clip0_1903_1007" x="-105.5" y="-43.5" rx="0" ry="0" width="211" height="87" />
</clipPath>
<path style="stroke: none; stroke-width: 1; stroke-dasharray: none; stroke-linecap: butt; stroke-dashoffset: 0; stroke-linejoin: miter; stroke-miterlimit: 4; fill: rgb(0,0,0); fill-rule: nonzero; opacity: 1;" vector-effect="non-scaling-stroke"  transform=" translate(-38.46, -43.5)" d="M 28.0522 27.1875 L 21.979 27.1875 L 21.979 32.6256 C 29.2632 32.6331 36.2468 35.4998 41.3976 40.5967 C 46.5483 45.6936 49.4454 52.6043 49.4532 59.8125 L 54.9478 59.8125 L 54.9478 53.8026 C 53.7055 47.1974 50.471 41.1193 45.6701 36.3684 C 40.8692 31.6176 34.727 28.4168 28.0522 27.1875 L 28.0522 27.1875 Z" stroke-linecap="round" />
</g>
</g>
</g>
<g transform="matrix(0 0 0 0 0 0)"  >
<g style=""   >
</g>
</g>
<g transform="matrix(0 0 0 0 0 0)"  >
<g style=""   >
</g>
</g>
<g transform="matrix(0 0 0 0 0 0)"  >
<g style=""   >
		<g transform="matrix(1 0 0 1 -5.49 5.44)" clip-path="url(#CLIPPATH_39)"  >
<clipPath id="CLIPPATH_39" >
	<rect transform="matrix(1 0 0 1 72.53 -5.44)" id="clip0_1903_1007" x="-105.5" y="-43.5" rx="0" ry="0" width="211" height="87" />
</clipPath>
<path style="stroke: none; stroke-width: 1; stroke-dasharray: none; stroke-linecap: butt; stroke-dashoffset: 0; stroke-linejoin: miter; stroke-miterlimit: 4; fill: rgb(0,0,0); fill-rule: nonzero; opacity: 1;" vector-effect="non-scaling-stroke"  transform=" translate(-32.97, -48.94)" d="M 21.979 38.0615 L 21.979 44.1014 C 24.0647 44.1 26.1302 44.5056 28.0574 45.2949 C 29.9845 46.0842 31.7355 47.2419 33.2101 48.7016 C 34.6843 50.1607 35.8534 51.8931 36.6506 53.7997 C 37.4478 55.7063 37.8574 57.7496 37.8561 59.813 L 43.9553 59.813 C 43.9498 54.0465 41.6328 48.5178 37.5128 44.4399 C 33.3927 40.362 27.8062 38.0681 21.979 38.0615 L 21.979 38.0615 Z" stroke-linecap="round" />
</g>
		<g transform="matrix(1 0 0 1 10.42 -10.31)" clip-path="url(#CLIPPATH_40)"  >
<clipPath id="CLIPPATH_40" >
	<rect transform="matrix(1 0 0 1 56.62 10.31)" id="clip0_1903_1007" x="-105.5" y="-43.5" rx="0" ry="0" width="211" height="87" />
</clipPath>
<path style="stroke: none; stroke-width: 1; stroke-dasharray: none; stroke-linecap: butt; stroke-dashoffset: 0; stroke-linejoin: miter; stroke-miterlimit: 4; fill: rgb(0,0,0); fill-rule: nonzero; opacity: 1;" vector-effect="non-scaling-stroke"  transform=" translate(-48.88, -33.19)" d="M 52.4813 27.1875 L 42.8154 27.1875 C 47.7052 30.2539 51.8485 34.3534 54.9479 39.1918 L 54.9479 29.6266 C 54.9475 28.9796 54.6874 28.3592 54.2249 27.9018 C 53.7623 27.4444 53.1352 27.1875 52.4813 27.1875 L 52.4813 27.1875 Z" stroke-linecap="round" />
</g>
		<g transform="matrix(1 0 0 1 0 0)" clip-path="url(#CLIPPATH_41)"  >
<clipPath id="CLIPPATH_41" >
	<rect transform="matrix(1 0 0 1 67.04 0)" id="clip0_1903_1007" x="-105.5" y="-43.5" rx="0" ry="0" width="211" height="87" />
</clipPath>
<path style="stroke: none; stroke-width: 1; stroke-dasharray: none; stroke-linecap: butt; stroke-dashoffset: 0; stroke-linejoin: miter; stroke-miterlimit: 4; fill: rgb(0,0,0); fill-rule: nonzero; opacity: 1;" vector-effect="non-scaling-stroke"  transform=" translate(-38.46, -43.5)" d="M 28.0522 27.1875 L 21.979 27.1875 L 21.979 32.6256 C 29.2632 32.6331 36.2468 35.4998 41.3976 40.5967 C 46.5483 45.6936 49.4454 52.6043 49.4532 59.8125 L 54.9478 59.8125 L 54.9478 53.8026 C 53.7055 47.1974 50.471 41.1193 45.6701 36.3684 C 40.8692 31.6176 34.727 28.4168 28.0522 27.1875 L 28.0522 27.1875 Z" stroke-linecap="round" />
</g>
</g>
</g>
<g transform="matrix(0 0 0 0 0 0)"  >
<g style=""   >
</g>
</g>
<g transform="matrix(0 0 0 0 0 0)"  >
<g style=""   >
</g>
</g>
<g transform="matrix(0 0 0 0 0 0)"  >
<g style=""   >
		<g transform="matrix(1 0 0 1 -5.49 5.44)" clip-path="url(#CLIPPATH_42)"  >
<clipPath id="CLIPPATH_42" >
	<rect transform="matrix(1 0 0 1 72.53 -5.44)" id="clip0_1903_1007" x="-105.5" y="-43.5" rx="0" ry="0" width="211" height="87" />
</clipPath>
<path style="stroke: none; stroke-width: 1; stroke-dasharray: none; stroke-linecap: butt; stroke-dashoffset: 0; stroke-linejoin: miter; stroke-miterlimit: 4; fill: rgb(0,0,0); fill-rule: nonzero; opacity: 1;" vector-effect="non-scaling-stroke"  transform=" translate(-32.97, -48.94)" d="M 21.979 38.0615 L 21.979 44.1014 C 24.0647 44.1 26.1302 44.5056 28.0574 45.2949 C 29.9845 46.0842 31.7355 47.2419 33.2101 48.7016 C 34.6843 50.1607 35.8534 51.8931 36.6506 53.7997 C 37.4478 55.7063 37.8574 57.7496 37.8561 59.813 L 43.9553 59.813 C 43.9498 54.0465 41.6328 48.5178 37.5128 44.4399 C 33.3927 40.362 27.8062 38.0681 21.979 38.0615 L 21.979 38.0615 Z" stroke-linecap="round" />
</g>
		<g transform="matrix(1 0 0 1 10.42 -10.31)" clip-path="url(#CLIPPATH_43)"  >
<clipPath id="CLIPPATH_43" >
	<rect transform="matrix(1 0 0 1 56.62 10.31)" id="clip0_1903_1007" x="-105.5" y="-43.5" rx="0" ry="0" width="211" height="87" />
</clipPath>
<path style="stroke: none; stroke-width: 1; stroke-dasharray: none; stroke-linecap: butt; stroke-dashoffset: 0; stroke-linejoin: miter; stroke-miterlimit: 4; fill: rgb(0,0,0); fill-rule: nonzero; opacity: 1;" vector-effect="non-scaling-stroke"  transform=" translate(-48.88, -33.19)" d="M 52.4813 27.1875 L 42.8154 27.1875 C 47.7052 30.2539 51.8485 34.3534 54.9479 39.1918 L 54.9479 29.6266 C 54.9475 28.9796 54.6874 28.3592 54.2249 27.9018 C 53.7623 27.4444 53.1352 27.1875 52.4813 27.1875 L 52.4813 27.1875 Z" stroke-linecap="round" />
</g>
		<g transform="matrix(1 0 0 1 0 0)" clip-path="url(#CLIPPATH_44)"  >
<clipPath id="CLIPPATH_44" >
	<rect transform="matrix(1 0 0 1 67.04 0)" id="clip0_1903_1007" x="-105.5" y="-43.5" rx="0" ry="0" width="211" height="87" />
</clipPath>
<path style="stroke: none; stroke-width: 1; stroke-dasharray: none; stroke-linecap: butt; stroke-dashoffset: 0; stroke-linejoin: miter; stroke-miterlimit: 4; fill: rgb(0,0,0); fill-rule: nonzero; opacity: 1;" vector-effect="non-scaling-stroke"  transform=" translate(-38.46, -43.5)" d="M 28.0522 27.1875 L 21.979 27.1875 L 21.979 32.6256 C 29.2632 32.6331 36.2468 35.4998 41.3976 40.5967 C 46.5483 45.6936 49.4454 52.6043 49.4532 59.8125 L 54.9478 59.8125 L 54.9478 53.8026 C 53.7055 47.1974 50.471 41.1193 45.6701 36.3684 C 40.8692 31.6176 34.727 28.4168 28.0522 27.1875 L 28.0522 27.1875 Z" stroke-linecap="round" />
</g>
</g>
</g>
<g transform="matrix(0 0 0 0 0 0)"  >
<g style=""   >
</g>
</g>
<g transform="matrix(0 0 0 0 0 0)"  >
<g style=""   >
</g>
</g>
<g transform="matrix(29.44 0 0 29.44 377.53 697.63)" clip-path="url(#CLIPPATH_45)"  >
<clipPath id="CLIPPATH_45" >
	<rect transform="matrix(1 0 0 1 72.53 -5.44)" id="clip0_1903_1007" x="-105.5" y="-43.5" rx="0" ry="0" width="211" height="87" />
</clipPath>
<path style="stroke: none; stroke-width: 1; stroke-dasharray: none; stroke-linecap: butt; stroke-dashoffset: 0; stroke-linejoin: miter; stroke-miterlimit: 4; fill: rgb(0,0,0); fill-rule: nonzero; opacity: 1;" vector-effect="non-scaling-stroke"  transform=" translate(-32.97, -48.94)" d="M 21.979 38.0615 L 21.979 44.1014 C 24.0647 44.1 26.1302 44.5056 28.0574 45.2949 C 29.9845 46.0842 31.7355 47.2419 33.2101 48.7016 C 34.6843 50.1607 35.8534 51.8931 36.6506 53.7997 C 37.4478 55.7063 37.8574 57.7496 37.8561 59.813 L 43.9553 59.813 C 43.9498 54.0465 41.6328 48.5178 37.5128 44.4399 C 33.3927 40.362 27.8062 38.0681 21.979 38.0615 L 21.979 38.0615 Z" stroke-linecap="round" />
</g>
<g transform="matrix(29.44 0 0 29.44 845.91 234.12)" clip-path="url(#CLIPPATH_46)"  >
<clipPath id="CLIPPATH_46" >
	<rect transform="matrix(1 0 0 1 56.62 10.31)" id="clip0_1903_1007" x="-105.5" y="-43.5" rx="0" ry="0" width="211" height="87" />
</clipPath>
<path style="stroke: none; stroke-width: 1; stroke-dasharray: none; stroke-linecap: butt; stroke-dashoffset: 0; stroke-linejoin: miter; stroke-miterlimit: 4; fill: rgb(0,0,0); fill-rule: nonzero; opacity: 1;" vector-effect="non-scaling-stroke"  transform=" translate(-48.88, -33.19)" d="M 52.4813 27.1875 L 42.8154 27.1875 C 47.7052 30.2539 51.8485 34.3534 54.9479 39.1918 L 54.9479 29.6266 C 54.9475 28.9796 54.6874 28.3592 54.2249 27.9018 C 53.7623 27.4444 53.1352 27.1875 52.4813 27.1875 L 52.4813 27.1875 Z" stroke-linecap="round" />
</g>
<g transform="matrix(29.44 0 0 29.44 539.33 537.65)" clip-path="url(#CLIPPATH_47)"  >
<clipPath id="CLIPPATH_47" >
	<rect transform="matrix(1 0 0 1 67.04 0)" id="clip0_1903_1007" x="-105.5" y="-43.5" rx="0" ry="0" width="211" height="87" />
</clipPath>
<path style="stroke: none; stroke-width: 1; stroke-dasharray: none; stroke-linecap: butt; stroke-dashoffset: 0; stroke-linejoin: miter; stroke-miterlimit: 4; fill: rgb(0,0,0); fill-rule: nonzero; opacity: 1;" vector-effect="non-scaling-stroke"  transform=" translate(-38.46, -43.5)" d="M 28.0522 27.1875 L 21.979 27.1875 L 21.979 32.6256 C 29.2632 32.6331 36.2468 35.4998 41.3976 40.5967 C 46.5483 45.6936 49.4454 52.6043 49.4532 59.8125 L 54.9478 59.8125 L 54.9478 53.8026 C 53.7055 47.1974 50.471 41.1193 45.6701 36.3684 C 40.8692 31.6176 34.727 28.4168 28.0522 27.1875 L 28.0522 27.1875 Z" stroke-linecap="round" />
</g>
</svg>